# xmcd
#
# Track frame offsets:
#	150
#	22376
#	41542
#	70963
#	122598
#	207855
#	226371
#
# Disc length: 3597 seconds
#
# Revision: 1
# Processed by: cddbd v1.5.2PL0 Copyright (c) Steve Scherf et al.
# Submitted via: audiograbber 1.83.01
#
DISCID=600e0b07
DTITLE=Henrik Freischlader - Tour 2010 [CD1-Set One)
DYEAR=2010
DGENRE=Blues
TTITLE0=I
TTITLE1=Got It Made
TTITLE2=So Damn Cool
TTITLE3=She's Back (For Another Try)
TTITLE4=Bad Dreams (Wolkenwinde)
TTITLE5=Never Be True
TTITLE6=The Bridge
EXTD=
EXTT0=
EXTT1=
EXTT2=
EXTT3=
EXTT4=
EXTT5=
EXTT6=
PLAYORDER=
